HIERARCHY
ROOT Hips
{
	OFFSET 0.00 0.00 0.00
	CHANNELS 6 Xposition Yposition Zposition Xrotation Yrotation Zrotation
	JOINT LeftUpLeg
	{
		OFFSET 3.34807 0.00000 0.00000
		CHANNELS 3 Xrotation Yrotation Zrotation
		JOINT LeftLeg
		{
			OFFSET 0.00000 -16.98552 0.00000
			CHANNELS 3 Xrotation Yrotation Zrotation
			JOINT LeftFoot
			{
				OFFSET 0.00000 -16.83686 0.00000
				CHANNELS 3 Xrotation Yrotation Zrotation
				JOINT LeftToeBase
				{
					OFFSET 0.00000 -1.59599 5.95633
					CHANNELS 3 Xrotation Yrotation Zrotation
					End Site
					{
						OFFSET 0.00000 0.00000 2.95275
					}
				}
			}
		}
	}
	JOINT RightUpLeg
	{
		OFFSET -3.34807 0.00000 0.00000
		CHANNELS 3 Xrotation Yrotation Zrotation
		JOINT RightLeg
		{
			OFFSET 0.00000 -16.98552 0.00000
			CHANNELS 3 Xrotation Yrotation Zrotation
			JOINT RightFoot
			{
				OFFSET 0.00000 -16.83686 0.00000
				CHANNELS 3 Xrotation Yrotation Zrotation
				JOINT RightToeBase
				{
					OFFSET 0.00000 -1.59599 5.95633
					CHANNELS 3 Xrotation Yrotation Zrotation
					End Site
					{
						OFFSET 0.00000 0.00000 2.95275
					}
				}
			}
		}
	}
	JOINT Spine
	{
		OFFSET 0.00000 0.03937 0.00000
		CHANNELS 3 Xrotation Yrotation Zrotation
		JOINT Spine1
		{
			OFFSET 0.00000 7.93124 0.00000
			CHANNELS 3 Xrotation Yrotation Zrotation
			JOINT Neck
			{
				OFFSET 0.00000 8.48368 0.00000
				CHANNELS 3 Xrotation Yrotation Zrotation
				JOINT Head
				{
					OFFSET 0.00000 6.65077 0.00000
					CHANNELS 3 Xrotation Yrotation Zrotation
					End Site
					{
						OFFSET 0.00000 4.52755 0.00000
					}
				}
			}
			JOINT LeftShoulder
			{
				OFFSET 0.00000 8.48368 0.00000
				CHANNELS 3 Xrotation Yrotation Zrotation
				JOINT LeftArm
				{
					OFFSET 7.74502 -0.00003 0.00000
					CHANNELS 3 Xrotation Yrotation Zrotation
					JOINT LeftForeArm
					{
						OFFSET 12.49824 -0.00005 0.00000
						CHANNELS 3 Xrotation Yrotation Zrotation
						JOINT LeftHand
						{
							OFFSET 9.88337 -0.00004 0.00000
							CHANNELS 3 Xrotation Yrotation Zrotation
							JOINT LeftHandThumb
							{
								OFFSET 0.00000 0.00000 0.00000
								CHANNELS 3 Xrotation Yrotation Zrotation
								End Site
								{
									OFFSET 0.00000 0.00000 3.93700
								}
							}
							JOINT L_Wrist_End
							{
								OFFSET 3.93700 -0.00001 0.00000
								CHANNELS 3 Xrotation Yrotation Zrotation
							}
						}
					}
				}
			}
			JOINT RightShoulder
			{
				OFFSET 0.00000 8.48368 0.00000
				CHANNELS 3 Xrotation Yrotation Zrotation
				JOINT RightArm
				{
					OFFSET -7.74502 -0.00003 0.00000
					CHANNELS 3 Xrotation Yrotation Zrotation
					JOINT RightForeArm
					{
						OFFSET -12.49824 -0.00005 0.00000
						CHANNELS 3 Xrotation Yrotation Zrotation
						JOINT RightHand
						{
							OFFSET -9.88337 -0.00004 0.00000
							CHANNELS 3 Xrotation Yrotation Zrotation
							JOINT RightHandThumb
							{
								OFFSET 0.00000 0.00000 0.00000
								CHANNELS 3 Xrotation Yrotation Zrotation
								End Site
								{
									OFFSET 0.00000 0.00000 3.93700
								}
							}
							JOINT R_Wrist_End
							{
								OFFSET -5.39369 -0.00002 0.00000
								CHANNELS 3 Xrotation Yrotation Zrotation
							}
						}
					}
				}
			}
		}
	}
}
MOTION
Frames: 15
Frame Time: 0.033332
 -87.2391 25.0808 -5.7006 75.0414 43.7655 -81.2667 -94.2072 -7.9965 14.6138 95.8880 -0.0000 0.0000 -42.8280 8.9654 -12.2681 3.6080 -0.0000 -0.0000 -94.0174 -2.0503 5.1811 92.2150 -0.0000 0.0000 -38.0682 -14.9811 11.2544 -4.8356 -0.0000 -0.0000 -2.2256 0.2385 -1.1214 39.8909 -4.5548 -3.5225 -23.3067 9.6489 7.3020 -31.4558 -6.7236 -2.7488 -23.0729 5.6901 24.7416 -34.2483 -13.2296 -81.7363 -0.0000 -12.2374 -0.0000 -20.4070 -27.6771 13.4566 -0.0000 0.0000 -0.0000 -0.0000 0.0000 -0.0000 7.7913 -4.0353 -4.4814 -58.5711 17.3888 93.6895 -0.0000 7.6968 0.0000 -27.1765 -73.8791 -29.5401 -0.0000 0.0000 -0.0000 -0.0000 0.0000 -0.0000
 -86.1587 24.9984 -5.5523 72.7592 48.7140 -80.8685 -87.0370 -9.1253 15.9768 97.2516 -0.0000 0.0000 -44.2529 9.1898 -14.1581 2.4114 -0.0000 0.0000 -87.0547 -2.2803 6.5284 93.5435 -0.0000 0.0000 -38.1998 -14.9853 13.2875 -8.5134 0.0000 -0.0000 -2.1317 -0.3112 -2.1292 39.3846 -2.6973 -1.3135 -21.3090 10.4758 7.3304 -31.1355 -6.9171 -3.8318 -23.9127 0.1475 26.1890 -46.9977 -9.1955 -77.5425 -0.0000 -12.2478 -0.0000 -21.6568 -33.2013 16.6157 -0.0000 0.0000 -0.0000 -0.0000 0.0000 -0.0000 4.2232 0.5441 -8.8629 -71.7241 9.1974 95.6148 -0.0000 13.0912 0.0000 -15.9686 -71.6779 -20.3379 -0.0000 0.0000 -0.0000 -0.0000 0.0000 -0.0000
 -84.9809 25.1060 -5.5247 71.6109 52.4575 -81.2286 -80.7347 -9.9568 16.4658 97.8528 -0.0000 0.0000 -44.8315 9.4210 -14.9405 -0.2614 0.0000 0.0000 -81.0334 -3.4209 6.4503 94.3870 -0.0000 0.0000 -37.4965 -14.5116 15.9655 -10.8443 0.0000 0.0000 -2.5562 -0.9411 -2.3502 38.3221 -1.2234 0.8090 -20.9992 10.1572 6.6822 -28.4549 -7.0896 -2.7180 -24.0698 -3.7241 28.3634 -60.8987 -8.8469 -72.6486 -0.0001 -14.6226 -0.0000 -20.6766 -36.7247 15.5296 -0.0000 -0.0000 0.0000 -0.0000 -0.0000 0.0000 0.0765 4.1825 -13.9902 -85.0133 4.3237 93.3529 -0.0001 17.8323 0.0000 -12.9731 -70.1724 -16.5189 -0.0000 0.0000 -0.0000 -0.0000 0.0000 -0.0000
 -83.5851 25.5102 -5.5937 70.8065 55.5599 -81.2204 -74.0968 -9.5323 16.7410 97.0279 0.0000 0.0000 -44.7699 9.6614 -15.5004 -2.6252 -0.0000 0.0000 -74.2517 -4.7459 5.6176 93.4197 -0.0000 0.0000 -37.2112 -13.9701 17.3241 -11.0643 0.0000 0.0000 -2.6724 -1.1427 -1.7916 36.7842 -0.6288 1.7373 -20.5972 9.7672 6.3289 -27.2335 -7.8241 -1.9322 -24.5965 -6.5581 31.7698 -73.8125 -8.9468 -67.5503 -0.0001 -19.1316 -0.0000 -19.1085 -37.9784 11.4717 -0.0000 0.0000 -0.0000 -0.0000 0.0000 -0.0000 -1.4568 6.3308 -18.7956 -100.0247 6.9001 85.7725 -0.0001 22.0731 0.0000 -10.4311 -9.5777 -10.1119 -0.0000 0.0000 -0.0000 -0.0000 0.0000 -0.0000
 -81.7050 26.3850 -5.6623 68.7345 59.8386 -79.1710 -64.0105 -6.9066 17.5396 93.3680 -0.0000 0.0000 -44.0250 9.4670 -15.6598 -5.5019 -0.0000 0.0000 -63.9431 -4.4792 5.0638 89.4279 -0.0000 0.0000 -36.2421 -12.8339 18.1742 -14.0120 0.0000 0.0000 -1.4484 -1.2310 -1.6470 35.0736 -0.3229 2.1832 -18.7726 9.8831 5.3992 -27.6291 -8.5555 -0.8403 -26.5383 -9.4393 35.8431 -81.3852 -8.8008 -61.8509 -0.0001 -24.5520 -0.0000 -16.3054 -40.4724 9.4301 -0.0000 0.0000 -0.0000 -0.0000 0.0000 -0.0000 -2.7929 8.1695 -24.2752 -109.4909 12.5392 74.6014 -0.0001 24.9845 0.0000 2.5092 -5.5788 -26.8057 -0.0000 0.0000 -0.0000 -0.0000 0.0000 -0.0000
 -79.2477 27.7441 -5.7358 67.7416 63.4018 -77.5878 -52.5640 -3.0593 17.6935 85.9354 -0.0000 0.0000 -42.0821 8.7148 -16.0933 -7.6999 0.0000 0.0000 -52.1291 -3.0904 4.2884 82.0839 -0.0000 0.0000 -34.2504 -11.8182 19.4843 -15.1208 -0.0000 0.0000 -0.2150 -1.6147 -0.7597 31.6106 -1.3910 1.5516 -17.7930 9.9523 4.9044 -24.4417 -9.0877 0.4486 -27.8935 -10.2052 38.9648 -86.3291 -10.3475 -57.3852 -0.0001 -30.2494 -0.0000 -8.4293 -41.2624 7.5096 -0.0000 -0.0000 0.0000 -0.0000 -0.0000 0.0000 -4.6498 8.2896 -27.5320 -114.5250 16.2662 66.0430 -0.0001 26.1513 0.0000 22.4488 -6.1777 -45.9839 -0.0000 0.0000 -0.0000 -0.0000 0.0000 -0.0000
 -76.1601 29.6949 -5.8624 68.9863 65.3535 -78.3904 -41.2543 2.0115 17.6842 74.0941 -0.0000 0.0000 -36.0271 7.4082 -17.2105 -12.1550 -0.0000 -0.0000 -39.7926 -2.8718 3.0772 70.5086 -0.0000 0.0000 -27.7007 -10.7951 19.7019 -19.1266 0.0000 -0.0000 3.2991 -2.2193 -0.4303 19.7089 -1.5954 2.3105 -15.6354 11.2326 5.9812 -15.4315 -10.9533 0.0458 -28.1210 -21.5468 42.7069 -90.0204 -4.9916 -47.4764 -0.0000 -12.7313 -0.0000 -86.2377 -60.2960 57.5377 -0.0000 0.0000 -0.0000 -0.0000 0.0000 -0.0000 -4.9827 6.1520 -27.7192 -116.6022 18.3011 62.8077 -0.0001 24.9964 0.0000 -54.1643 -47.5473 -67.8761 -0.0000 0.0000 -0.0000 -0.0000 0.0000 -0.0000
 -72.5674 32.1461 -6.0354 67.7700 70.4575 -75.9346 -26.2425 9.3619 17.1823 59.2739 -0.0000 0.0000 -21.0692 3.5002 -18.1344 -21.7602 -0.0000 -0.0000 -24.4133 -3.5416 0.4557 57.4157 -0.0000 0.0000 -13.2415 -8.1682 23.0510 11.6340 0.0000 -0.0000 5.8314 -2.1006 0.1577 12.9942 -1.7043 1.6094 -14.4920 10.6218 7.4129 -2.4917 -12.5470 -0.8247 -26.7027 -22.4915 41.5307 -98.6877 0.2284 -46.2426 -0.0000 -7.4546 -0.0000 -28.4177 -75.1511 125.3771 -0.0000 -0.0000 0.0000 -0.0000 -0.0000 0.0000 -1.9459 3.0028 -28.1544 -117.4639 19.7956 58.8917 -0.0001 30.0093 0.0000 -61.7748 -42.8443 -73.6190 -0.0000 0.0000 -0.0000 -0.0000 0.0000 -0.0000
 -69.0228 34.8735 -6.2967 64.7425 74.8786 -71.4530 -13.9277 14.8084 15.7369 46.0291 -0.0000 0.0000 2.3873 -2.0502 -22.8571 -28.6985 0.0000 -0.0000 -13.4570 -4.8051 -2.4975 47.3277 -0.0000 0.0000 5.9359 -6.3355 33.4087 13.3413 -0.0000 0.0000 3.9688 -2.7643 0.4307 15.3110 -2.5420 1.1827 -14.6892 9.6216 7.1316 6.1160 -11.0639 -0.0687 -23.2154 -14.2737 39.5112 -104.0983 -5.6520 -49.2560 -0.0001 -21.0322 -0.0000 -16.2253 -69.1504 140.0566 -0.0000 0.0000 -0.0000 -0.0000 0.0000 -0.0000 -3.2229 2.9391 -29.2433 -117.2730 18.1669 55.7999 -0.0002 40.6052 0.0001 -60.3368 -45.7572 -76.1138 -0.0000 0.0000 -0.0000 -0.0000 0.0000 -0.0000
 -66.1573 37.5344 -6.5100 66.2215 76.2216 -71.7275 -10.1288 15.4723 14.6020 40.4338 -0.0000 0.0000 15.2298 -6.5986 -21.5316 3.7430 -0.0000 -0.0000 -11.5948 -4.9611 -4.0951 46.0728 -0.0000 0.0000 13.5886 -6.0027 29.9737 23.5346 0.0000 0.0000 2.5893 -3.2275 0.0953 15.7419 -2.8302 1.8953 -16.2824 8.9916 7.6968 13.5078 -11.6582 -1.7273 -23.7122 -11.0538 39.3173 -102.9827 -8.1499 -48.7236 -0.0001 -31.2347 -0.0000 -3.0688 -62.8821 155.8006 -0.0000 0.0000 -0.0000 -0.0000 0.0000 -0.0000 -3.5835 2.0900 -28.8312 -120.6781 16.9345 54.3970 -0.0003 50.7712 0.0001 -58.9809 -48.4092 -79.5292 -0.0000 0.0000 -0.0000 -0.0000 0.0000 -0.0000
 -63.8666 39.7924 -6.6506 67.4723 76.7138 -72.2297 -11.4087 14.6114 14.3801 41.9260 0.0000 0.0000 8.2600 -6.5965 -22.6882 1.2054 0.0000 -0.0000 -14.8436 -5.1749 -4.8576 51.8995 -0.0000 0.0000 11.7968 -10.1645 25.2208 16.3604 -0.0000 0.0000 2.3645 -3.5034 -0.1654 15.7075 -2.9528 2.4667 -16.1435 9.4960 7.8238 16.2757 -12.6707 -3.1114 -27.1590 -11.8047 40.5770 -96.3241 -8.3253 -45.9081 -0.0002 -40.5687 -0.0001 8.8920 -54.3813 171.6044 -0.0000 -0.0000 0.0000 -0.0000 -0.0000 0.0000 -6.2193 2.7275 -29.2096 -122.0787 13.0269 53.8430 -0.0004 60.3575 0.0002 -58.8268 -51.9144 -81.3908 -0.0000 0.0000 -0.0000 -0.0000 0.0000 -0.0000
 -61.7427 41.6382 -6.8122 67.3483 78.2703 -71.1645 -12.3037 14.2997 13.9050 41.1962 0.0000 0.0000 4.2882 -1.5963 -24.7781 2.8947 0.0000 -0.0000 -17.6812 -5.9638 -5.9569 56.3274 -0.0000 0.0000 8.6404 -14.9889 22.6695 10.0409 -0.0000 0.0000 3.3536 -3.7548 -0.2649 16.0113 -3.2217 2.5236 -13.7198 10.3381 6.8329 16.3331 -12.6534 -3.2071 -28.3991 -11.0547 41.8644 -94.5933 -4.9263 -44.5948 -0.0002 -47.5486 -0.0001 15.4905 -69.1920 143.6876 -0.0000 0.0000 -0.0000 -0.0000 0.0000 -0.0000 -8.1727 2.7029 -30.7445 -122.9304 7.3890 54.2724 -0.0006 69.1241 0.0004 -61.3539 -54.4702 -82.9370 -0.0000 0.0000 -0.0000 -0.0000 0.0000 -0.0000
 -59.6251 43.1212 -6.9362 63.7542 80.2312 -66.9588 -12.1697 15.4851 13.8630 36.9200 -0.0000 0.0000 -1.2730 3.4383 -21.6082 1.2433 -0.0000 0.0000 -19.4974 -6.3020 -6.5002 57.9130 -0.0000 0.0000 4.7823 -14.4386 20.3601 6.0476 0.0000 0.0000 4.8398 -3.7764 -0.0712 16.3368 -3.4155 2.0834 -11.7788 11.0070 6.3684 18.0133 -12.8111 -3.5163 -28.4271 -9.1056 42.5875 -94.2950 -1.2779 -45.3067 -0.0003 -53.7835 -0.0001 -42.3363 -66.0524 30.7805 -0.0000 0.0000 -0.0000 -0.0000 0.0000 -0.0000 -8.7409 2.1515 -32.4911 -122.2639 3.0358 54.2823 -0.0009 76.9959 0.0007 -65.7766 -56.2633 -84.4754 -0.0000 0.0000 -0.0000 -0.0000 0.0000 -0.0000
 -57.6246 44.2452 -7.0085 61.7138 81.1765 -64.6888 -14.2161 16.6472 14.5514 33.3317 -0.0000 0.0000 -5.4379 5.9055 -18.8030 0.5535 0.0000 -0.0000 -22.4560 -6.6897 -6.3065 57.5659 -0.0000 0.0000 5.2516 -11.9281 19.8446 1.5670 0.0000 -0.0000 5.5343 -3.8298 0.0573 16.7925 -3.5565 1.8624 -10.6643 11.6895 6.5252 19.4681 -13.5261 -4.1847 -28.2028 -7.5302 42.4508 -92.6431 -0.8185 -46.0555 -0.0003 -58.8352 -0.0002 -36.7522 -65.6820 39.7240 -0.0000 0.0000 -0.0000 -0.0000 0.0000 -0.0000 -8.6302 1.9101 -32.9144 -121.2916 2.4864 54.3021 -0.0014 81.5734 0.0012 -65.9768 -57.8859 -85.5000 -0.0000 0.0000 -0.0000 -0.0000 0.0000 -0.0000
 -55.7262 44.9336 -7.0687 63.3541 81.6338 -66.0374 -17.7985 16.9452 15.0907 31.2407 -0.0000 0.0000 -4.0007 6.4747 -18.1918 -0.7078 0.0000 0.0000 -25.9792 -7.3395 -5.9653 55.5576 -0.0000 0.0000 8.1361 -9.7380 19.5503 -2.2786 0.0000 0.0000 5.7939 -3.9515 -0.0128 17.6339 -3.7484 1.7716 -10.3741 11.2491 6.2733 20.1215 -13.0589 -3.8466 -28.1185 -6.0083 42.3705 -90.6031 -2.3411 -46.3026 -0.0004 -62.4500 -0.0002 -34.2627 -64.5688 44.5337 -0.0000 0.0000 -0.0000 -0.0000 0.0000 -0.0000 -8.4118 1.2427 -32.8423 -120.2594 4.0157 54.2276 -0.0018 83.4611 0.0016 -64.7492 -60.5154 -84.7438 -0.0000 0.0000 -0.0000 -0.0000 0.0000 -0.0000
